# xmcd
#
# Track frame offsets:
#	187
#	15515
#	26682
#	41600
#	51757
#	61145
#	73857
#	86100
#	100887
#	110267
#
# Disc length: 1705 seconds
#
# Revision: 0
# Processed by: cddbd v1.4PL0 Copyright (c) Steve Scherf et al.
# Submitted via: audiograbber 1.81.01
#
DISCID=7e06a70a
DTITLE=Billie Jo Spears - Crazy
DYEAR=1900
DGENRE=
TTITLE0=Blanket on the Ground
TTITLE1=If You Want Me
TTITLE2=We've Still Got Love
TTITLE3=Take Me to the River
TTITLE4=Right or Wrong
TTITLE5=I'm Not Easy
TTITLE6=Apologizing Roses
TTITLE7=Crazy
TTITLE8=Just Like You Lord
TTITLE9=Why Don't We Go Dancing
EXTD=
EXTT0=
EXTT1=
EXTT2=
EXTT3=
EXTT4=
EXTT5=
EXTT6=
EXTT7=
EXTT8=
EXTT9=
PLAYORDER=
